<?xml version="1.0" standalone="no"?>
<!DOCTYPE svg PUBLIC "-//W3C//DTD SVG 20010904//EN"
 "http://www.w3.org/TR/2001/REC-SVG-20010904/DTD/svg10.dtd">
<svg version="1.0" xmlns="http://www.w3.org/2000/svg"
 width="860.000000pt" height="706.000000pt" viewBox="0 0 860.000000 706.000000"
 preserveAspectRatio="xMidYMid meet">

<g transform="translate(0.000000,706.000000) scale(0.100000,-0.100000)"
fill="#000000" stroke="none">
<path d="M4050 6654 c-1099 -97 -2060 -747 -2550 -1724 -149 -297 -249 -616
-301 -960 -21 -136 -24 -190 -23 -445 0 -311 13 -437 69 -685 202 -892 783
-1648 1605 -2088 327 -175 756 -302 1149 -342 133 -13 469 -13 602 0 681 69
1325 357 1814 812 587 545 930 1235 1006 2023 15 160 6 575 -16 715 -92 586
-304 1077 -655 1520 -106 135 -365 394 -499 499 -369 292 -804 501 -1259 605
-223 52 -370 68 -642 71 -140 1 -275 1 -300 -1z m269 -1340 c169 -34 414 -115
535 -177 181 -92 308 -251 347 -432 21 -96 16 -282 -11 -418 -24 -118 -24
-119 -4 -155 13 -24 19 -54 18 -92 -1 -72 -31 -205 -56 -250 -10 -19 -25 -46
-32 -60 -8 -14 -22 -59 -31 -100 -40 -173 -149 -369 -285 -512 -138 -147 -264
-224 -416 -255 -110 -22 -189 -9 -311 52 -75 37 -112 64 -189 137 -174 167
-291 376 -339 606 -9 44 -25 86 -40 106 -34 44 -67 174 -69 268 -1 65 2 80 20
100 33 37 35 52 18 181 -11 83 -15 173 -12 282 4 176 15 216 89 342 74 125
269 290 426 360 35 15 88 28 133 33 41 4 77 8 79 9 2 0 60 -11 130 -25z m-507
-2411 c132 -117 265 -180 439 -208 86 -13 277 34 388 96 61 35 156 103 166
119 11 19 38 10 89 -28 107 -81 223 -141 374 -194 64 -22 167 -62 227 -88 61
-26 126 -53 145 -60 61 -23 163 -87 206 -128 128 -124 263 -551 318 -1007 9
-71 18 -146 21 -167 5 -36 4 -37 -83 -101 -282 -208 -544 -345 -867 -452 -899
-298 -1886 -150 -2662 399 -171 121 -157 102 -149 205 4 49 18 159 31 245 49
315 112 540 201 723 86 176 162 235 414 321 324 111 509 202 615 304 39 37 71
68 72 68 1 0 26 -21 55 -47z"/>
</g>
</svg>
