<?xml version="1.0" standalone="no"?>
<!DOCTYPE svg PUBLIC "-//W3C//DTD SVG 20010904//EN"
 "http://www.w3.org/TR/2001/REC-SVG-20010904/DTD/svg10.dtd">
<svg version="1.0" xmlns="http://www.w3.org/2000/svg"
 width="512.000000pt" height="512.000000pt" viewBox="0 0 512.000000 512.000000"
 preserveAspectRatio="xMidYMid meet">

<g transform="translate(0.000000,512.000000) scale(0.100000,-0.100000)"
fill="#000000" stroke="none">
<path d="M1525 4674 c-197 -43 -398 -177 -518 -345 -46 -65 -103 -190 -129
-284 -20 -74 -22 -103 -22 -385 l-1 -305 28 -47 c66 -113 219 -140 320 -57 69
56 71 71 77 394 6 273 7 294 29 348 44 111 142 206 258 250 l58 22 1105 3
c687 2 1129 -1 1168 -7 187 -29 332 -172 362 -357 13 -79 13 -2609 0 -2688
-30 -185 -175 -328 -362 -357 -39 -6 -481 -9 -1168 -7 l-1105 3 -58 22 c-116
44 -214 139 -258 250 -22 54 -23 75 -29 348 -6 323 -8 338 -77 394 -101 83
-254 56 -320 -57 l-28 -47 1 -305 c0 -282 2 -311 22 -385 26 -94 83 -219 129
-284 88 -123 236 -241 374 -299 157 -65 109 -63 1429 -60 l1195 3 95 33 c141
49 231 104 330 202 100 99 158 183 201 295 61 158 59 84 59 1595 0 1511 2
1437 -59 1595 -42 109 -100 195 -195 291 -96 96 -201 161 -336 207 l-95 32
-1205 2 c-1041 1 -1215 0 -1275 -13z"/>
<path d="M2260 3394 c-107 -47 -157 -185 -102 -289 11 -22 86 -105 166 -185
l146 -145 -953 -5 -953 -5 -37 -25 c-21 -14 -50 -43 -65 -64 -24 -35 -27 -49
-27 -116 0 -67 3 -81 27 -116 15 -21 44 -50 65 -64 l37 -25 953 -5 953 -5
-146 -145 c-80 -80 -155 -163 -166 -185 -41 -78 -21 -192 44 -252 57 -54 167
-69 236 -34 55 29 728 707 747 753 8 21 15 56 15 78 0 22 -7 57 -15 78 -19 46
-692 724 -747 753 -45 23 -128 25 -178 3z"/>
</g>
</svg>
