<?xml version="1.0" standalone="no"?>
<!DOCTYPE svg PUBLIC "-//W3C//DTD SVG 20010904//EN"
 "http://www.w3.org/TR/2001/REC-SVG-20010904/DTD/svg10.dtd">
<svg version="1.0" xmlns="http://www.w3.org/2000/svg"
 width="512.000000pt" height="512.000000pt" viewBox="0 0 512.000000 512.000000"
 preserveAspectRatio="xMidYMid meet">
<metadata>
Created by potrace 1.16, written by Peter Selinger 2001-2019
</metadata>
<g transform="translate(0.000000,512.000000) scale(0.100000,-0.100000)"
fill="#000000" stroke="none">
<path d="M1223 4680 c-555 -58 -993 -406 -1157 -920 -54 -167 -61 -223 -61
-455 0 -194 2 -218 27 -316 82 -324 255 -602 583 -938 251 -257 483 -455 1170
-1001 231 -183 500 -398 598 -477 l177 -143 128 103 c70 57 339 272 597 477
744 591 902 726 1176 999 102 102 220 229 261 281 191 240 305 458 366 699 25
98 27 122 27 316 0 232 -7 288 -61 455 -130 407 -439 720 -846 854 -283 94
-618 94 -880 0 -275 -99 -517 -296 -701 -571 -34 -51 -64 -92 -67 -92 -3 0
-33 41 -67 92 -184 275 -426 472 -701 571 -159 57 -394 84 -569 66z"/>
</g>
</svg>
