<svg xmlns="http://www.w3.org/2000/svg" version="1.0" width="512.000000" height="512.000000" preserveAspectRatio="xMidYMid meet" style=""><rect id="backgroundrect" width="100%" height="100%" x="0" y="0" fill="none" stroke="none"/>


<g class="currentLayer" style=""><title>Layer 1</title><g transform="translate(0,512) scale(0.10000000149011612,-0.10000000149011612) " fill="#ffffff" stroke="#ffffff" id="svg_1" class="selected" fill-opacity="1" stroke-opacity="1">
<path d="M2370 5114 c-19 -2 -78 -9 -130 -15 -376 -43 -778 -193 -1102 -410 -267 -180 -534 -448 -715 -719 -208 -311 -349 -691 -404 -1090 -18 -125 -18 -515 0 -640 56 -406 196 -780 412 -1102 195 -289 488 -572 779 -753 753 -466 1700 -511 2483 -119 275 138 448 264 673 488 211 212 342 388 471 636 76 144 72 248 -11 338 -53 58 -105 82 -182 82 -45 0 -73 -6 -113 -26 -60 -30 -94 -72 -151 -184 -117 -231 -330 -487 -542 -653 -361 -281 -756 -426 -1208 -444 -796 -30 -1547 415 -1908 1132 -350 692 -278 1530 184 2150 502 674 1352 976 2166 769 565 -143 1037 -518 1318 -1047 61 -113 103 -159 168 -181 92 -32 177 -15 249 48 61 53 83 103 83 189 0 62 -4 75 -55 172 -387 741 -1077 1231 -1915 1360 -100 15 -472 28 -550 19z" id="svg_2" fill="#ffffff" fill-opacity="1" stroke="#ffffff" stroke-opacity="1"/>
<path d="M2774 3586 c-52 -23 -110 -83 -134 -138 -27 -62 -25 -144 5 -201 11 -20 109 -127 218 -237 l199 -200 -744 -2 c-739 -3 -743 -3 -783 -24 -189 -101 -190 -355 -3 -448 l52 -26 740 0 740 0 -201 -202 c-110 -112 -209 -219 -219 -238 -27 -51 -25 -162 3 -215 47 -88 128 -138 223 -138 103 0 116 9 501 396 305 306 359 365 390 425 71 135 74 290 8 431 -28 59 -68 102 -393 429 -234 235 -375 370 -402 382 -48 24 -152 26 -200 6z" id="svg_3" fill="#ffffff" fill-opacity="1" stroke="#ffffff" stroke-opacity="1"/>
</g></g></svg>