<svg xmlns="http://www.w3.org/2000/svg" xmlns:xlink="http://www.w3.org/1999/xlink" version="1.1" style="enable-background:new 0 0 458 458;" xml:space="preserve" width="458" height="458"><rect id="backgroundrect" width="100%" height="100%" x="0" y="0" fill="none" stroke="none"/>
















<g class="currentLayer" style=""><title>Layer 1</title><g id="svg_1" class="selected" stroke="#ffffff" stroke-opacity="1" fill="#ffffff" fill-opacity="1">
	<g id="svg_2" stroke="#ffffff" stroke-opacity="1" fill="#ffffff" fill-opacity="1">
		<path d="M428,41.534H30c-16.568,0-30,13.432-30,30v252c0,16.568,13.432,30,30,30h132.1l43.942,52.243    c5.7,6.777,14.103,10.69,22.959,10.69c8.856,0,17.259-3.912,22.959-10.689l43.942-52.243H428c16.569,0,30-13.432,30-30v-252    C458,54.965,444.569,41.534,428,41.534z M85.402,127h137c8.284,0,15,6.716,15,15s-6.716,15-15,15h-137c-8.284,0-15-6.716-15-15    S77.118,127,85.402,127z M372,249H86c-8.284,0-15-6.716-15-15s6.716-15,15-15h286c8.284,0,15,6.716,15,15S380.284,249,372,249z" id="svg_3" stroke="#ffffff" stroke-opacity="1" fill="#ffffff" fill-opacity="1"/>
	</g>
</g><g id="svg_4">
</g><g id="svg_5">
</g><g id="svg_6">
</g><g id="svg_7">
</g><g id="svg_8">
</g><g id="svg_9">
</g><g id="svg_10">
</g><g id="svg_11">
</g><g id="svg_12">
</g><g id="svg_13">
</g><g id="svg_14">
</g><g id="svg_15">
</g><g id="svg_16">
</g><g id="svg_17">
</g><g id="svg_18">
</g></g></svg>