<?xml version="1.0" standalone="no"?>
<!DOCTYPE svg PUBLIC "-//W3C//DTD SVG 20010904//EN"
 "http://www.w3.org/TR/2001/REC-SVG-20010904/DTD/svg10.dtd">
<svg version="1.0" xmlns="http://www.w3.org/2000/svg"
 width="512.000000pt" height="512.000000pt" viewBox="0 0 512.000000 512.000000"
 preserveAspectRatio="xMidYMid meet">

<g transform="translate(0.000000,512.000000) scale(0.100000,-0.100000)"
fill="#000000" stroke="none">
<path d="M2321 5110 c-868 -84 -1644 -610 -2037 -1382 -139 -273 -221 -536
-266 -853 -20 -140 -17 -504 6 -660 39 -278 121 -541 247 -794 249 -502 647
-900 1150 -1150 815 -406 1779 -350 2539 147 297 194 579 482 771 788 74 116
184 342 234 478 51 138 110 376 131 531 23 157 26 521 6 660 -43 299 -120 554
-246 810 -378 768 -1090 1285 -1941 1411 -122 18 -466 26 -594 14z m1131
-2452 l3 -1503 23 -56 c12 -30 38 -74 58 -97 l36 -42 -1199 2 -1198 3 -50 27
c-60 31 -104 77 -136 138 l-24 45 -3 1493 -2 1492 1245 0 1245 0 2 -1502z
m706 -700 l-3 -783 -23 -42 c-35 -66 -79 -110 -140 -140 -148 -72 -325 -7
-396 146 -21 45 -21 57 -24 824 l-2 777 295 0 295 0 -2 -782z"/>
<path d="M1330 3810 c-19 -19 -20 -33 -20 -440 0 -407 1 -421 20 -440 20 -20
33 -20 873 -20 468 0 857 4 863 8 32 21 34 53 34 455 0 394 -1 405 -21 431
l-20 26 -855 0 c-841 0 -854 0 -874 -20z m1640 -440 l0 -340 -767 2 -768 3 -3
325 c-1 179 0 330 3 337 3 10 164 13 770 13 l765 0 0 -340z"/>
<path d="M1287 2592 c-22 -24 -21 -65 1 -85 17 -15 60 -17 415 -17 l396 0 15
22 c21 30 20 54 -4 78 -19 19 -33 20 -413 20 -369 0 -395 -1 -410 -18z"/>
<path d="M2390 2590 c-19 -19 -20 -33 -20 -440 0 -407 1 -421 20 -440 19 -19
33 -20 344 -20 l325 0 20 26 c20 26 21 37 21 434 0 397 -1 408 -21 434 l-20
26 -325 0 c-311 0 -325 -1 -344 -20z m580 -440 l0 -340 -237 2 -238 3 -3 325
c-1 179 0 330 3 337 3 10 60 13 240 13 l235 0 0 -340z"/>
<path d="M1287 2192 c-22 -24 -21 -65 1 -85 17 -15 60 -17 410 -17 379 0 393
1 412 20 24 24 25 48 4 78 l-15 22 -398 0 c-373 0 -399 -1 -414 -18z"/>
<path d="M1287 1792 c-24 -26 -21 -68 5 -86 19 -14 75 -16 410 -16 375 0 389
1 408 20 24 24 25 48 4 78 l-15 22 -398 0 c-373 0 -399 -1 -414 -18z"/>
<path d="M1287 1392 c-24 -26 -21 -68 5 -86 20 -14 121 -16 888 -16 960 0 910
-3 910 64 0 17 -5 37 -12 44 -9 9 -221 12 -893 12 -842 0 -883 -1 -898 -18z"/>
</g>
</svg>
