<svg width="23" height="21" viewBox="0 0 23 21" fill="none" xmlns="http://www.w3.org/2000/svg">
<path fill-rule="evenodd" clip-rule="evenodd" d="M17.9441 10.8805C17.6525 12.1402 17.8196 13.533 18.7556 14.4462L21.3218 16.9498C22.1223 17.7308 22.1223 18.9971 21.3218 19.7782C20.5212 20.5592 19.2232 20.5592 18.4226 19.7782L16.299 17.7064C15.2514 16.6843 13.6102 16.6084 12.2044 17.0648C9.17346 18.0489 5.69815 17.3641 3.28566 15.0104C-0.116785 11.691 -0.116785 6.30905 3.28566 2.98959C6.6881 -0.329864 12.2046 -0.329864 15.607 2.98959C17.8017 5.13079 18.5808 8.13014 17.9441 10.8805ZM13.1218 12.5355C15.1232 10.5829 15.1232 7.41709 13.1218 5.46447C11.1203 3.51185 7.87535 3.51185 5.87391 5.46447C3.87247 7.41709 3.87247 10.5829 5.87391 12.5355C7.87535 14.4882 11.1203 14.4882 13.1218 12.5355Z" fill="white"/>
<path d="M18.7556 14.4462L19.1048 14.0883L18.7556 14.4462ZM17.9441 10.8805L18.4312 10.9933L17.9441 10.8805ZM21.3218 16.9498L20.9726 17.3076V17.3076L21.3218 16.9498ZM21.3218 19.7782L21.6709 20.1361V20.1361L21.3218 19.7782ZM18.4226 19.7782L18.0735 20.1361V20.1361L18.4226 19.7782ZM16.299 17.7064L15.9499 18.0643L16.299 17.7064ZM12.2044 17.0648L12.3588 17.5404L12.2044 17.0648ZM3.28566 15.0104L3.63482 14.6525L3.28566 15.0104ZM3.28566 2.98959L2.9365 2.6317L3.28566 2.98959ZM15.607 2.98959L15.2578 3.34748L15.607 2.98959ZM13.1218 5.46447L13.4709 5.10658L13.1218 5.46447ZM5.87391 5.46447L5.52475 5.10658H5.52475L5.87391 5.46447ZM5.87391 12.5355L5.52475 12.8934L5.87391 12.5355ZM19.1048 14.0883C18.3392 13.3414 18.1622 12.1554 18.4312 10.9933L17.457 10.7678C17.1428 12.1251 17.3 13.7246 18.4065 14.8041L19.1048 14.0883ZM21.6709 16.5919L19.1048 14.0883L18.4065 14.8041L20.9726 17.3076L21.6709 16.5919ZM21.6709 20.1361C22.6726 19.1588 22.6726 17.5691 21.6709 16.5919L20.9726 17.3076C21.5721 17.8925 21.5721 18.8354 20.9726 19.4203L21.6709 20.1361ZM18.0735 20.1361C19.0682 21.1066 20.6761 21.1066 21.6709 20.1361L20.9726 19.4203C20.3662 20.0119 19.3781 20.0119 18.7718 19.4203L18.0735 20.1361ZM15.9499 18.0643L18.0735 20.1361L18.7718 19.4203L16.6482 17.3485L15.9499 18.0643ZM12.3588 17.5404C13.6724 17.1139 15.0886 17.224 15.9499 18.0643L16.6482 17.3485C15.4142 16.1446 13.548 16.1029 12.05 16.5892L12.3588 17.5404ZM2.9365 15.3683C5.4886 17.8582 9.16019 18.5789 12.3588 17.5404L12.05 16.5892C9.18672 17.5189 5.9077 16.87 3.63482 14.6525L2.9365 15.3683ZM2.9365 2.6317C-0.667064 6.14737 -0.667064 11.8526 2.9365 15.3683L3.63482 14.6525C0.433494 11.5293 0.433494 6.47073 3.63482 3.34748L2.9365 2.6317ZM15.9562 2.6317C12.3595 -0.877234 6.53315 -0.877234 2.9365 2.6317L3.63482 3.34748C6.84305 0.217505 12.0496 0.217506 15.2578 3.34748L15.9562 2.6317ZM18.4312 10.9933C19.1062 8.07751 18.2794 4.89833 15.9562 2.6317L15.2578 3.34748C17.324 5.36325 18.0553 8.18276 17.457 10.7678L18.4312 10.9933ZM12.7726 5.82236C14.5729 7.57877 14.5729 10.4212 12.7726 12.1776L13.4709 12.8934C15.6735 10.7446 15.6735 7.25541 13.4709 5.10658L12.7726 5.82236ZM6.22307 5.82236C8.0303 4.05921 10.9654 4.05921 12.7726 5.82236L13.4709 5.10658C11.2753 2.96448 7.7204 2.96448 5.52475 5.10658L6.22307 5.82236ZM6.22307 12.1776C4.42275 10.4212 4.42275 7.57877 6.22307 5.82236L5.52475 5.10658C3.3222 7.25541 3.3222 10.7446 5.52475 12.8934L6.22307 12.1776ZM12.7726 12.1776C10.9654 13.9408 8.0303 13.9408 6.22307 12.1776L5.52475 12.8934C7.7204 15.0355 11.2753 15.0355 13.4709 12.8934L12.7726 12.1776Z" fill="white"/>
</svg>
