<svg xmlns="http://www.w3.org/2000/svg" version="1.0" width="581.000000" height="176.000000" preserveAspectRatio="xMidYMid meet"><rect id="backgroundrect" width="100%" height="100%" x="0" y="0" fill="none" stroke="none"/>


<g class="currentLayer" style=""><title>Layer 1</title><g transform="translate(0,176) scale(0.10000000149011612,-0.10000000149011612) " fill="#ffffff" stroke="#ffffff" id="svg_1" class="selected" fill-opacity="1" stroke-opacity="1">
<path d="M170 1701 c-19 -10 -48 -35 -65 -55 l-30 -38 0 -728 0 -728 30 -38 c65 -79 9 -74 840 -74 831 0 775 -5 840 74 l30 38 0 728 0 728 -30 38 c-65 79 -9 74 -840 74 -702 0 -742 -1 -775 -19z m1286 -346 c7 -17 -73 -630 -86 -662 -9 -22 -14 -23 -142 -23 l-133 0 -183 -140 c-101 -77 -189 -140 -197 -140 -25 0 -26 18 -5 99 11 44 20 82 20 85 0 3 -39 7 -87 8 l-87 3 -68 329 c-47 221 -66 332 -59 339 8 8 902 113 994 116 16 1 30 -5 33 -14z" id="svg_2" fill="#ffffff" stroke="#ffffff"/>
<path d="M2170 1035 l0 -295 55 0 55 0 2 193 3 192 49 -193 49 -193 50 3 51 3 45 180 46 180 5 -180 5 -180 53 -3 52 -3 0 295 0 296 -75 0 -74 0 -10 -37 c-71 -259 -95 -342 -100 -337 -3 3 -28 87 -56 187 l-50 182 -77 3 -78 3 0 -296z" id="svg_3" fill="#ffffff" stroke="#ffffff"/>
<path d="M2810 1035 l0 -295 175 0 175 0 0 50 0 50 -120 0 -120 0 0 70 0 69 88 3 87 3 3 48 3 47 -90 0 -91 0 0 75 0 74 118 3 117 3 0 45 0 45 -172 3 -173 2 0 -295z" id="svg_4" fill="#ffffff" stroke="#ffffff"/>
<path d="M3311 1312 c-48 -24 -73 -62 -78 -119 -10 -104 43 -158 187 -192 102 -23 125 -44 117 -105 -3 -21 -10 -43 -15 -48 -14 -14 -77 -21 -126 -14 -40 6 -46 11 -56 42 -11 33 -13 34 -62 34 l-51 0 6 -46 c5 -48 32 -85 79 -110 41 -21 213 -19 258 4 50 25 75 74 75 147 -1 119 -62 170 -237 200 -48 8 -68 28 -68 69 0 51 40 73 114 62 36 -6 45 -12 57 -39 13 -30 17 -32 64 -32 50 0 50 0 47 30 -5 48 -35 97 -72 117 -48 25 -190 25 -239 0z" id="svg_5" fill="#ffffff" stroke="#ffffff"/>
<path d="M3803 1315 c-53 -23 -75 -68 -71 -147 5 -101 41 -133 189 -167 94 -22 109 -35 109 -97 0 -54 -25 -74 -92 -74 -65 0 -94 13 -106 49 -10 29 -15 31 -57 31 -56 0 -64 -14 -40 -76 11 -29 29 -53 53 -69 33 -23 46 -25 142 -25 118 0 154 13 191 72 16 27 19 46 17 105 -3 64 -7 76 -33 103 -40 43 -66 55 -160 75 -44 10 -86 22 -92 28 -7 5 -13 29 -13 53 0 39 3 46 26 54 61 24 134 3 144 -40 5 -22 11 -25 55 -25 l50 0 -1 37 c-1 45 -24 82 -67 108 -26 16 -50 20 -122 20 -55 -1 -103 -6 -122 -15z" id="svg_6" fill="#ffffff" stroke="#ffffff"/>
<path d="M4356 1313 c-72 -246 -156 -545 -156 -557 0 -14 9 -17 52 -14 51 3 51 4 62 43 l12 40 100 3 101 3 13 -46 13 -45 54 0 c47 0 54 2 49 18 -3 9 -37 127 -76 262 -39 135 -75 260 -81 278 -10 32 -11 32 -74 32 -52 0 -65 -3 -69 -17z m109 -254 c19 -68 35 -125 35 -126 0 -2 -31 -3 -70 -3 -44 0 -70 4 -70 11 0 17 64 248 68 245 2 -2 19 -59 37 -127z" id="svg_7" fill="#ffffff" stroke="#ffffff"/>
<path d="M4810 1312 c-67 -34 -75 -62 -75 -277 0 -214 7 -240 75 -276 48 -26 209 -27 259 -1 63 32 75 60 79 183 l4 109 -91 0 -92 0 3 -42 c3 -40 5 -43 36 -46 31 -3 32 -5 32 -48 0 -69 -25 -88 -107 -81 -36 3 -70 10 -76 16 -17 17 -17 355 0 372 17 17 112 23 146 10 19 -7 29 -20 33 -41 6 -29 8 -30 62 -30 l55 0 -7 43 c-9 52 -28 82 -69 107 -44 27 -215 29 -267 2z" id="svg_8" fill="#ffffff" stroke="#ffffff"/>
<path d="M5370 1308 c-14 -32 -160 -539 -160 -556 0 -10 14 -12 52 -10 52 3 53 3 64 43 l11 40 100 3 101 3 13 -43 c14 -43 14 -43 67 -46 28 -2 52 1 52 5 0 4 -38 136 -84 293 l-83 285 -61 3 c-56 3 -63 1 -72 -20z m109 -255 c17 -62 31 -115 31 -118 0 -3 -31 -5 -70 -5 -38 0 -70 3 -70 6 0 26 65 243 71 237 4 -4 21 -59 38 -120z" id="svg_9" fill="#ffffff" stroke="#ffffff"/>
<path d="M2090 465 l0 -35 1825 0 1825 0 0 35 0 35 -1825 0 -1825 0 0 -35z" id="svg_10" fill="#ffffff" stroke="#ffffff"/>
</g></g></svg>