<svg xmlns="http://www.w3.org/2000/svg" version="1.0" width="673" height="256" preserveAspectRatio="xMidYMid meet" style=""><rect id="backgroundrect" width="100%" height="100%" x="0" y="0" fill="none" stroke="none"/>


<g class="currentLayer" style=""><title>Layer 1</title><g transform="translate(0,256) scale(0.10000000149011612,-0.10000000149011612) " fill="#ffffff" stroke="#ffffff" id="svg_1" class="" stroke-opacity="1" fill-opacity="1">
<path d="M750 2151 c-19 -10 -48 -35 -65 -55 l-30 -38 0 -728 0 -728 30 -38 c65 -79 9 -74 840 -74 831 0 775 -5 840 74 l30 38 0 728 0 728 -30 38 c-65 79 -9 74 -840 74 -702 0 -742 -1 -775 -19z m1286 -346 c7 -17 -73 -630 -86 -662 -9 -22 -14 -23 -142 -23 l-133 0 -183 -140 c-101 -77 -189 -140 -197 -140 -25 0 -26 18 -5 99 11 44 20 82 20 85 0 3 -39 7 -87 8 l-87 3 -68 329 c-47 221 -66 332 -59 339 8 8 902 113 994 116 16 1 30 -5 33 -14z" id="svg_2" stroke="#ffffff" stroke-opacity="1" fill="#ffffff" fill-opacity="1"/>
<path d="M2750 1485 l0 -295 55 0 55 0 2 193 3 192 49 -193 49 -193 50 3 51 3 45 180 46 180 5 -180 5 -180 53 -3 52 -3 0 295 0 296 -75 0 -74 0 -10 -37 c-71 -259 -95 -342 -100 -337 -3 3 -28 87 -56 187 l-50 182 -77 3 -78 3 0 -296z" id="svg_3" stroke="#ffffff" stroke-opacity="1" fill="#ffffff" fill-opacity="1"/>
<path d="M3390 1485 l0 -295 175 0 175 0 0 50 0 50 -120 0 -120 0 0 70 0 69 88 3 87 3 3 48 3 47 -90 0 -91 0 0 75 0 74 118 3 117 3 0 45 0 45 -172 3 -173 2 0 -295z" id="svg_4" stroke="#ffffff" stroke-opacity="1" fill="#ffffff" fill-opacity="1"/>
<path d="M3891 1762 c-48 -24 -73 -62 -78 -119 -10 -104 43 -158 187 -192 102 -23 125 -44 117 -105 -3 -21 -10 -43 -15 -48 -14 -14 -77 -21 -126 -14 -40 6 -46 11 -56 42 -11 33 -13 34 -62 34 l-51 0 6 -46 c5 -48 32 -85 79 -110 41 -21 213 -19 258 4 50 25 75 74 75 147 -1 119 -62 170 -237 200 -48 8 -68 28 -68 69 0 51 40 73 114 62 36 -6 45 -12 57 -39 13 -30 17 -32 64 -32 50 0 50 0 47 30 -5 48 -35 97 -72 117 -48 25 -190 25 -239 0z" id="svg_5" stroke="#ffffff" stroke-opacity="1" fill="#ffffff" fill-opacity="1"/>
<path d="M4383 1765 c-53 -23 -75 -68 -71 -147 5 -101 41 -133 189 -167 94 -22 109 -35 109 -97 0 -54 -25 -74 -92 -74 -65 0 -94 13 -106 49 -10 29 -15 31 -57 31 -56 0 -64 -14 -40 -76 11 -29 29 -53 53 -69 33 -23 46 -25 142 -25 118 0 154 13 191 72 16 27 19 46 17 105 -3 64 -7 76 -33 103 -40 43 -66 55 -160 75 -44 10 -86 22 -92 28 -7 5 -13 29 -13 53 0 39 3 46 26 54 61 24 134 3 144 -40 5 -22 11 -25 55 -25 l50 0 -1 37 c-1 45 -24 82 -67 108 -26 16 -50 20 -122 20 -55 -1 -103 -6 -122 -15z" id="svg_6" stroke="#ffffff" stroke-opacity="1" fill="#ffffff" fill-opacity="1"/>
<path d="M4936 1763 c-72 -246 -156 -545 -156 -557 0 -14 9 -17 52 -14 51 3 51 4 62 43 l12 40 100 3 101 3 13 -46 13 -45 54 0 c47 0 54 2 49 18 -3 9 -37 127 -76 262 -39 135 -75 260 -81 278 -10 32 -11 32 -74 32 -52 0 -65 -3 -69 -17z m109 -254 c19 -68 35 -125 35 -126 0 -2 -31 -3 -70 -3 -44 0 -70 4 -70 11 0 17 64 248 68 245 2 -2 19 -59 37 -127z" id="svg_7" stroke="#ffffff" stroke-opacity="1" fill="#ffffff" fill-opacity="1"/>
<path d="M5390 1762 c-67 -34 -75 -62 -75 -277 0 -214 7 -240 75 -276 48 -26 209 -27 259 -1 63 32 75 60 79 183 l4 109 -91 0 -92 0 3 -42 c3 -40 5 -43 36 -46 31 -3 32 -5 32 -48 0 -69 -25 -88 -107 -81 -36 3 -70 10 -76 16 -17 17 -17 355 0 372 17 17 112 23 146 10 19 -7 29 -20 33 -41 6 -29 8 -30 62 -30 l55 0 -7 43 c-9 52 -28 82 -69 107 -44 27 -215 29 -267 2z" id="svg_8" stroke="#ffffff" stroke-opacity="1" fill="#ffffff" fill-opacity="1"/>
<path d="M5950 1758 c-14 -32 -160 -539 -160 -556 0 -10 14 -12 52 -10 52 3 53 3 64 43 l11 40 100 3 101 3 13 -43 c14 -43 14 -43 67 -46 28 -2 52 1 52 5 0 4 -38 136 -84 293 l-83 285 -61 3 c-56 3 -63 1 -72 -20z m109 -255 c17 -62 31 -115 31 -118 0 -3 -31 -5 -70 -5 -38 0 -70 3 -70 6 0 26 65 243 71 237 4 -4 21 -59 38 -120z" id="svg_9" stroke="#ffffff" stroke-opacity="1" fill="#ffffff" fill-opacity="1"/>
<path d="M2784 1002 c-57 -38 -29 -152 38 -152 23 0 75 46 64 57 -4 4 -15 -2 -23 -14 -29 -43 -80 -26 -89 29 -11 65 55 100 93 49 11 -14 12 -14 13 0 0 8 -5 20 -12 27 -13 13 -67 16 -84 4z" id="svg_10" stroke="#ffffff" stroke-opacity="1" fill="#ffffff" fill-opacity="1"/>
<path d="M2950 936 c0 -41 5 -78 10 -81 6 -4 10 10 10 35 l0 41 43 -3 c41 -3 42 -4 45 -41 2 -20 7 -35 13 -32 12 8 12 155 -1 155 -5 0 -10 -13 -10 -30 0 -29 -2 -30 -45 -30 -43 0 -45 1 -45 30 0 17 -4 30 -10 30 -6 0 -10 -31 -10 -74z" id="svg_11" stroke="#ffffff" stroke-opacity="1" fill="#ffffff" fill-opacity="1"/>
<path d="M3165 940 c-26 -69 -30 -121 -5 -67 10 21 20 27 46 27 26 0 33 -5 38 -25 4 -14 11 -25 17 -25 6 0 9 6 7 13 -3 6 -15 42 -28 80 -13 37 -29 67 -36 67 -7 0 -24 -31 -39 -70z m54 -7 c1 -7 -8 -13 -19 -13 -23 0 -23 0 -9 37 10 26 12 27 19 8 5 -11 9 -26 9 -32z" id="svg_12" stroke="#ffffff" stroke-opacity="1" fill="#ffffff" fill-opacity="1"/>
<path d="M3320 1000 c0 -5 11 -10 25 -10 24 0 25 -2 25 -71 0 -44 4 -68 10 -64 6 3 10 35 10 71 0 62 1 64 25 64 14 0 25 5 25 10 0 6 -27 10 -60 10 -33 0 -60 -4 -60 -10z" id="svg_13" stroke="#ffffff" stroke-opacity="1" fill="#ffffff" fill-opacity="1"/>
<path d="M3591 993 c1 -35 34 -138 44 -138 5 0 18 29 29 65 l19 65 18 -64 c27 -96 31 -96 59 7 23 83 23 82 11 82 -10 0 -12 -4 -32 -80 l-12 -45 -16 59 c-9 33 -21 61 -27 63 -7 2 -20 -23 -31 -59 l-20 -63 -13 63 c-7 34 -17 62 -21 62 -5 0 -9 -8 -8 -17z" id="svg_14" stroke="#ffffff" stroke-opacity="1" fill="#ffffff" fill-opacity="1"/>
<path d="M3840 936 c0 -41 5 -78 10 -81 6 -4 10 23 10 74 0 47 -4 81 -10 81 -6 0 -10 -31 -10 -74z" id="svg_15" stroke="#ffffff" stroke-opacity="1" fill="#ffffff" fill-opacity="1"/>
<path d="M3920 1000 c0 -5 14 -10 30 -10 l30 0 0 -71 c0 -44 4 -68 10 -64 6 3 10 35 10 71 0 62 1 64 25 64 14 0 25 5 25 10 0 6 -28 10 -65 10 -37 0 -65 -4 -65 -10z" id="svg_16" stroke="#ffffff" stroke-opacity="1" fill="#ffffff" fill-opacity="1"/>
<path d="M4110 929 c0 -51 4 -78 10 -74 6 3 10 22 10 41 0 33 1 34 40 34 l40 0 0 -40 c0 -22 5 -40 10 -40 6 0 10 33 10 80 0 47 -4 80 -10 80 -5 0 -10 -13 -10 -30 0 -28 -2 -30 -40 -30 -38 0 -40 2 -40 30 0 17 -4 30 -10 30 -6 0 -10 -34 -10 -81z" id="svg_17" stroke="#ffffff" stroke-opacity="1" fill="#ffffff" fill-opacity="1"/>
<path d="M4400 930 c0 -47 4 -80 10 -80 6 0 10 18 10 39 0 40 0 40 43 44 l42 4 -42 1 c-39 2 -43 5 -43 27 0 23 4 25 45 25 25 0 45 5 45 10 0 6 -25 10 -55 10 l-55 0 0 -80z" id="svg_18" stroke="#ffffff" stroke-opacity="1" fill="#ffffff" fill-opacity="1"/>
<path d="M4570 930 c0 -47 4 -80 10 -80 6 0 10 16 10 35 0 34 1 35 39 35 37 0 40 -2 43 -32 2 -18 8 -31 13 -28 6 3 8 10 6 15 -1 6 -3 33 -3 60 0 28 -5 56 -10 63 -6 6 -32 12 -59 12 l-49 0 0 -80z m98 38 c-2 -19 -10 -24 -40 -26 -35 -3 -38 -1 -38 22 0 24 4 26 41 26 36 0 40 -2 37 -22z" id="svg_19" stroke="#ffffff" stroke-opacity="1" fill="#ffffff" fill-opacity="1"/>
<path d="M4770 929 c0 -51 4 -78 10 -74 6 3 10 40 10 81 0 43 -4 74 -10 74 -6 0 -10 -34 -10 -81z" id="svg_20" stroke="#ffffff" stroke-opacity="1" fill="#ffffff" fill-opacity="1"/>
<path d="M4862 933 l3 -78 49 -3 c27 -2 54 2 59 7 8 8 -5 11 -42 11 -51 0 -52 1 -49 28 3 24 8 28 48 33 l45 6 -47 1 c-44 2 -48 4 -48 27 0 23 4 25 44 25 25 0 48 5 51 10 4 6 -17 10 -55 10 l-61 0 3 -77z" id="svg_21" stroke="#ffffff" stroke-opacity="1" fill="#ffffff" fill-opacity="1"/>
<path d="M5040 936 c0 -92 18 -111 22 -24 l3 63 40 -59 c22 -33 45 -59 50 -58 13 2 19 152 6 152 -6 0 -11 -28 -13 -62 l-3 -63 -38 63 c-52 85 -67 82 -67 -12z" id="svg_22" stroke="#ffffff" stroke-opacity="1" fill="#ffffff" fill-opacity="1"/>
<path d="M5240 929 l0 -82 47 7 c60 8 78 26 77 76 -2 56 -26 80 -81 80 l-43 0 0 -81z m97 34 c15 -58 -3 -93 -48 -93 -29 0 -29 1 -29 60 l0 60 35 0 c29 0 36 -4 42 -27z" id="svg_23" stroke="#ffffff" stroke-opacity="1" fill="#ffffff" fill-opacity="1"/>
<path d="M5442 998 c-29 -29 -10 -60 48 -75 25 -7 35 -15 35 -29 0 -26 -54 -33 -72 -8 -15 20 -26 14 -17 -9 14 -38 100 -32 110 8 8 32 0 41 -44 55 -49 16 -58 26 -42 45 16 19 34 19 54 0 18 -19 26 -19 26 -1 0 26 -75 37 -98 14z" id="svg_24" stroke="#ffffff" stroke-opacity="1" fill="#ffffff" fill-opacity="1"/>
</g><path fill="none" fill-opacity="1" stroke="#ffffff" stroke-opacity="1" stroke-width="1" stroke-dasharray="none" stroke-linejoin="miter" stroke-linecap="butt" stroke-dashoffset="" fill-rule="nonzero" opacity="1" marker-start="" marker-mid="" marker-end="" d="M488.70476451122863,162.77005966082703L497.52109104184086,162.36189639552092" id="svg_25" class="selected"/><path fill="#ffffff" fill-opacity="1" stroke="#ffffff" stroke-opacity="1" stroke-width="1" stroke-dasharray="none" stroke-linejoin="miter" stroke-linecap="butt" stroke-dashoffset="" fill-rule="nonzero" opacity="1" marker-start="" marker-mid="" marker-end="" d="M442.41905022551435,162.44352904858215L450.5006828785757,162.36189639552092" id="svg_27" class=""/></g></svg>